# xmcd
#
# Track frame offsets:
#	150
#	17293
#	35347
#	61840
#	77919
#	104098
#	121835
#	144880
#	164066
#	186368
#	203841
#	220208
#	240727
#
# Disc length: 3483 seconds
#
# Revision: 1
# Processed by: cddbd v1.5.2PL0 Copyright (c) Steve Scherf et al.
# Submitted via: EZCDAudioConverter 5.0.0.1
#
DISCID=b20d990d
DTITLE=Ms.OOJA - Ms.OOJA No, Ichiban Nakeru Dorikamu
DYEAR=1900
DGENRE=Pop/Rock
TTITLE0=The Signs of Love
TTITLE1=Mirai Yosouzu
TTITLE2=Mirai Yosouzu II
TTITLE3=Love Love Love
TTITLE4=Ano Natsuno Hanabi
TTITLE5=Crescent Moon
TTITLE6=Kanashii Kiss
TTITLE7=7th of July Sunny Day
TTITLE8=Nee
TTITLE9=Again
TTITLE10=Nandodemo
TTITLE11=Saa Kaneo Narase
TTITLE12=Anatanoyouni
EXTD=
EXTT0=
EXTT1=
EXTT2=
EXTT3=
EXTT4=
EXTT5=
EXTT6=
EXTT7=
EXTT8=
EXTT9=
EXTT10=
EXTT11=
EXTT12=
PLAYORDER=
